<svg fill="#000000" version="1.1" id="Layer_1" xmlns="http://www.w3.org/2000/svg" xmlns:xlink="http://www.w3.org/1999/xlink" viewBox="-51.2 -51.2 614.40 614.40" xml:space="preserve" width="197px" height="197px" stroke="#000000" transform="matrix(1, 0, 0, 1, 0, 0)rotate(0)"><g id="SVGRepo_bgCarrier" stroke-width="0"></g><g id="SVGRepo_tracerCarrier" stroke-linecap="round" stroke-linejoin="round" stroke="#CCCCCC" stroke-width="1.024"></g><g id="SVGRepo_iconCarrier"> <g> <g> <g> <path d="M454.613,0H57.387C25.707,0,0,25.707,0,57.387v397.227C0,486.293,25.707,512,57.387,512h397.227 c31.68,0,57.387-25.707,57.387-57.387V57.387C512,25.707,486.293,0,454.613,0z M490.667,454.613 c0,19.947-16.107,36.053-36.053,36.053H57.387c-19.947,0-36.053-16.107-36.053-36.053V57.387 c0-19.947,16.107-36.053,36.053-36.053h397.227c19.947,0,36.053,16.107,36.053,36.053V454.613z"></path> <path d="M264.213,164.16c-12.48-11.52-31.467-17.173-56.213-17.173c-16.107-0.107-32.107,1.28-48,4.16v211.52h26.667v-86.4 c5.44,1.28,11.733,1.6,18.773,1.6c24.747,0,47.36-7.893,61.013-23.787c10.133-10.773,15.573-25.707,15.573-45.12 C282.027,189.867,275.413,174.293,264.213,164.16z M205.76,256.213c-7.68,0-13.973-0.32-19.093-1.92v-84.16 c7.36-1.387,14.827-2.027,22.293-1.92c29.653,0,46.507,15.573,46.507,42.24C255.573,240,236.373,256.213,205.76,256.213z"></path> <rect x="314.667" y="138.667" width="26.667" height="224"></rect> </g> </g> </g> </g></svg>